<?xml version="1.0" standalone="no"?>
<!DOCTYPE svg PUBLIC "-//W3C//DTD SVG 20010904//EN"
 "http://www.w3.org/TR/2001/REC-SVG-20010904/DTD/svg10.dtd">
<svg version="1.0" xmlns="http://www.w3.org/2000/svg"
 width="700.000000pt" height="700.000000pt" viewBox="0 0 700.000000 700.000000"
 preserveAspectRatio="xMidYMid meet">
<metadata>
Created by potrace 1.14, written by Peter Selinger 2001-2017
</metadata>
<g transform="translate(0.000000,700.000000) scale(0.100000,-0.100000)"
fill="#000000" stroke="none">
<path d="M4287 6724 c-1 -1 -45 -4 -97 -8 -52 -3 -108 -8 -125 -11 -159 -28
-206 -38 -245 -50 -25 -7 -79 -23 -120 -35 -168 -50 -507 -201 -727 -324 -100
-56 -366 -217 -400 -242 -17 -13 -34 -24 -37 -24 -2 0 -37 -22 -78 -48 -387
-254 -947 -476 -1362 -538 -66 -10 -105 -32 -123 -68 -9 -19 -13 -41 -10 -50
14 -35 98 -67 216 -81 30 -4 61 -8 70 -10 9 -1 48 -6 86 -9 39 -4 117 -13 175
-21 58 -8 132 -17 165 -20 33 -3 83 -7 110 -10 28 -3 79 -7 115 -10 36 -3 85
-7 110 -9 25 -3 81 -7 125 -10 186 -13 250 -18 253 -20 1 -2 -12 -18 -29 -36
-163 -170 -423 -518 -595 -795 -63 -103 -254 -434 -254 -441 0 -2 -24 -48 -54
-101 -29 -54 -75 -138 -101 -188 -97 -183 -119 -223 -193 -346 -64 -108 -148
-229 -244 -354 -123 -159 -292 -328 -459 -459 -150 -118 -192 -164 -220 -236
-82 -217 54 -630 319 -965 52 -66 205 -224 282 -290 50 -44 204 -154 282 -203
72 -44 265 -145 338 -176 204 -85 475 -173 625 -202 11 -2 40 -8 65 -14 48
-10 212 -39 269 -46 19 -2 46 -6 60 -8 26 -4 92 -11 206 -22 146 -13 508 -1
635 21 14 2 48 7 75 10 28 3 61 8 75 10 14 3 36 8 50 10 14 3 41 8 60 11 27 5
273 67 350 88 211 60 594 227 838 367 96 55 389 244 402 259 3 3 23 19 45 35
22 17 42 32 45 35 3 3 21 17 40 30 19 13 40 29 46 35 6 5 33 28 59 50 152 126
419 390 536 530 226 273 393 532 533 825 58 122 130 300 141 350 1 3 14 44 29
92 29 92 71 273 81 348 3 25 10 73 16 108 34 224 30 562 -12 802 -17 101 -20
115 -39 190 -76 295 -209 564 -378 767 l-52 63 -2 112 -2 113 45 80 c66 114
78 159 55 203 -43 81 -207 140 -352 128 -78 -7 -120 -24 -159 -64 l-30 -31 -1
32 c-6 167 -138 368 -365 560 -142 119 -390 232 -573 261 -21 4 -41 8 -45 10
-3 2 -35 7 -71 11 -36 4 -76 9 -90 11 -63 9 -376 23 -383 18z"/>
</g>
</svg>
